<svg width="50" height="50" viewBox="0 0 50 50" fill="none" xmlns="http://www.w3.org/2000/svg">
<path fill-rule="evenodd" clip-rule="evenodd" d="M39.5833 14.5833C41.8845 14.5833 43.75 16.4488 43.75 18.75V35.4167C43.75 37.7179 41.8845 39.5833 39.5833 39.5833H10.4167C8.11548 39.5833 6.25 37.7179 6.25 35.4167V18.75C6.25 16.4488 8.11548 14.5833 10.4167 14.5833H15.625C16.7756 14.5833 17.7083 13.6506 17.7083 12.5C17.7083 11.3494 18.6411 10.4167 19.7917 10.4167H30.2083C31.3589 10.4167 32.2917 11.3494 32.2917 12.5C32.2917 13.6506 33.2244 14.5833 34.375 14.5833H39.5833ZM25 33.3333C28.4518 33.3333 31.25 30.5351 31.25 27.0833C31.25 23.6316 28.4518 20.8333 25 20.8333C21.5482 20.8333 18.75 23.6316 18.75 27.0833C18.75 30.5351 21.5482 33.3333 25 33.3333Z" fill="black" fill-opacity="0.11" stroke="#BDBDBD" stroke-width="2.5" stroke-linecap="round" stroke-linejoin="round"/>
<path d="M43.75 35.4167V18.75C43.75 16.4488 41.8845 14.5833 39.5833 14.5833H34.375C33.2244 14.5833 32.2917 13.6506 32.2917 12.5C32.2917 11.3494 31.3589 10.4167 30.2083 10.4167H19.7917C18.6411 10.4167 17.7083 11.3494 17.7083 12.5C17.7083 13.6506 16.7756 14.5833 15.625 14.5833H10.4167C8.11548 14.5833 6.25 16.4488 6.25 18.75V35.4167C6.25 37.7179 8.11548 39.5833 10.4167 39.5833H39.5833C41.8845 39.5833 43.75 37.7179 43.75 35.4167Z" stroke="#BDBDBD" stroke-width="2.5" stroke-linecap="round" stroke-linejoin="round"/>
<path d="M31.25 27.0833C31.25 30.5351 28.4518 33.3333 25 33.3333C21.5482 33.3333 18.75 30.5351 18.75 27.0833C18.75 23.6316 21.5482 20.8333 25 20.8333C28.4518 20.8333 31.25 23.6316 31.25 27.0833Z" stroke="#BDBDBD" stroke-width="2.5" stroke-linecap="round" stroke-linejoin="round"/>
</svg>
